<svg
  xmlns="http://www.w3.org/2000/svg"
  viewBox="0 0 100 100"
  width="1"
  height="1"
>
  <circle
    style="fill:#d40213;stroke:none"
    transform="translate(1152.5,1152.5)"
    cx="-1102.5"
    cy="-1102.5"
    r="47.497623"
    id="circle1" 
	/>
  <path
    style="font-size:53.3334px;line-height:0;font-family:'Josefin Sans';-inkscape-font-specification:'Josefin Sans';letter-spacing:12px;fill:#f8111b;stroke-width:750;fill-opacity:1"
    d="m 84.820039,66.400018 q -0.960001,0.640001 -2.613336,1.440002 -1.653336,0.800001 -3.893339,1.333335 -2.186669,0.533334 -4.800006,0.533334 -4.480005,-0.05333 -8.106677,-1.600002 -3.573338,-1.546669 -6.080007,-4.213339 -2.50667,-2.66667 -3.893339,-6.133341 Q 54.1,54.240003 54.1,50.293331 q 0,-4.320005 1.386669,-7.946677 1.440002,-3.680004 4.000005,-6.346674 2.560003,-2.720004 6.026674,-4.213339 3.520005,-1.493335 7.68001,-1.493335 3.466671,0 6.293341,0.960001 2.82667,0.906668 4.85334,2.186669 l -2.080003,4.800006 q -1.600002,-1.066668 -3.893338,-2.026669 -2.240003,-0.960001 -5.01334,-0.960001 -2.82667,0 -5.33334,1.120001 -2.50667,1.120002 -4.426672,3.146671 -1.920003,2.026669 -3.040004,4.746673 -1.066668,2.66667 -1.066668,5.760007 0,3.146671 0.960001,5.866674 1.013335,2.66667 2.82667,4.640006 1.866669,1.973336 4.480006,3.093337 2.613337,1.120002 5.866674,1.120002 2.933337,0 5.226673,-0.906668 2.293336,-0.906668 3.786672,-2.026669 z"
	/>
  <path
    style="font-size:53.3334px;line-height:0;font-family:'Josefin Sans';-inkscape-font-specification:'Josefin Sans';letter-spacing:12px;fill:#f8111b;stroke-width:750;fill-opacity:1"
    d="m 40.853323,66.400018 q -0.960001,0.640001 -2.613337,1.440002 -1.653335,0.800001 -3.893338,1.333335 -2.18667,0.533334 -4.800006,0.533334 -4.480006,-0.05333 -8.106677,-1.600002 -3.573338,-1.546669 -6.080008,-4.213339 -2.50667,-2.66667 -3.893338,-6.133341 -1.333335,-3.520004 -1.333335,-7.466676 0,-4.320005 1.386668,-7.946677 1.440002,-3.680004 4.000005,-6.346674 2.560004,-2.720004 6.026675,-4.213339 3.520004,-1.493335 7.680009,-1.493335 3.466671,0 6.293342,0.960001 2.82667,0.906668 4.853339,2.186669 l -2.080003,4.800006 q -1.600002,-1.066668 -3.893338,-2.026669 -2.240003,-0.960001 -5.013339,-0.960001 -2.826671,0 -5.33334,1.120001 -2.50667,1.120002 -4.426673,3.146671 -1.920002,2.026669 -3.040004,4.746673 -1.066668,2.66667 -1.066668,5.760007 0,3.146671 0.960002,5.866674 1.013334,2.66667 2.82667,4.640006 1.866669,1.973336 4.480006,3.093337 2.613336,1.120002 5.866674,1.120002 2.933337,0 5.226673,-0.906668 2.293336,-0.906668 3.786671,-2.026669 z"
	/>
  <path
		style="fill:#f2f2f2"
    d="m 20.305737,47.307951 h 22.400016 v 4.340003 h -9.05334 v 29.40002 h -4.52667 v -29.40002 h -8.820006 z"
	/>
  <path
		style="fill:#f2f2f2"
    d="m 64.918341,47.307951 h 22.400016 v 4.340003 h -9.05334 v 29.40002 h -4.52667 v -29.40002 h -8.820006 z"
	/>
</svg>
